<svg xmlns="http://www.w3.org/2000/svg" width="53.255" height="53.255" viewBox="0 0 53.255 53.255">
  <g id="Group_16732" data-name="Group 16732" transform="translate(-371 -7272.465)">
    <path id="Path_6834" data-name="Path 6834" d="M129.027,155.655A26.627,26.627,0,1,0,102.4,129.027,26.627,26.627,0,0,0,129.027,155.655Z" transform="translate(268.6 7170.065)" fill="#3f729b"/>
    <path id="Path_6835" data-name="Path 6835" d="M330.543,307.2H310.348a3.145,3.145,0,0,0-3.149,3.142v20.209a3.146,3.146,0,0,0,3.149,3.142h20.195a3.146,3.146,0,0,0,3.149-3.142V310.342a3.145,3.145,0,0,0-3.149-3.142Zm-4.8,3.444a.8.8,0,0,1,.794-.795h2.384a.8.8,0,0,1,.795.795v2.384a.8.8,0,0,1-.795.795h-2.384a.8.8,0,0,1-.794-.795Zm-5.3,4.5a5.3,5.3,0,1,1-5.3,5.3,5.3,5.3,0,0,1,5.3-5.3Zm10.6,15.068a.822.822,0,0,1-.815.828H310.664a.822.822,0,0,1-.815-.828V317.8h3.261a5.122,5.122,0,0,0-.569,2.515,7.936,7.936,0,1,0,15.871,0,4.29,4.29,0,0,0-.63-2.515h3.261v12.418Z" transform="translate(77.182 6978.646)" fill="#fff"/>
  </g>
</svg>
