<svg xmlns="http://www.w3.org/2000/svg" width="52" height="54" viewBox="0 0 52 54">
  <g id="Group_16731" data-name="Group 16731" transform="translate(-299 -7272.092)">
    <ellipse id="Ellipse_10" data-name="Ellipse 10" cx="26" cy="27" rx="26" ry="27" transform="translate(299 7272.092)" fill="#007ab9"/>
    <path id="Path_69" data-name="Path 69" d="M56.761,41.364V52.343H50.4V42.1c0-2.572-.919-4.329-3.224-4.329A3.482,3.482,0,0,0,43.906,40.1,4.357,4.357,0,0,0,43.7,41.65V52.343H37.33s.085-17.349,0-19.145H43.7v2.713c-.013.021-.031.042-.042.063H43.7v-.063a6.321,6.321,0,0,1,5.737-3.163c4.188,0,7.328,2.736,7.328,8.616ZM30.67,23.969a3.317,3.317,0,1,0-.084,6.616h.041a3.318,3.318,0,1,0,.042-6.616ZM27.446,52.343H33.81V33.2H27.446Z" transform="translate(284.397 7259.614)" fill="#f1f2f2"/>
  </g>
</svg>
