<svg xmlns="http://www.w3.org/2000/svg" width="52" height="54" viewBox="0 0 52 54">
  <g id="Group_16730" data-name="Group 16730" transform="translate(-226 -7272.092)">
    <ellipse id="Ellipse_11" data-name="Ellipse 11" cx="26" cy="27" rx="26" ry="27" transform="translate(226 7272.092)" fill="#cb2027"/>
    <path id="Path_70" data-name="Path 70" d="M43.892,48.386c-2-.154-2.836-1.145-4.4-2.1-.861,4.516-1.913,8.845-5.028,11.107C33.5,50.572,35.873,45.445,36.976,40c-1.88-3.164.226-9.533,4.191-7.964,4.88,1.93-4.225,11.766,1.887,12.994,6.381,1.283,8.986-11.072,5.028-15.09-5.717-5.8-16.642-.132-15.3,8.173.327,2.03,2.425,2.647.838,5.449-3.659-.81-4.751-3.7-4.61-7.544.226-6.3,5.659-10.708,11.108-11.318,6.891-.771,13.359,2.53,14.252,9.013,1,7.316-3.111,15.239-10.479,14.67Z" transform="translate(209.789 7259.697)" fill="#f1f2f2"/>
  </g>
</svg>
