<svg xmlns="http://www.w3.org/2000/svg" width="53.255" height="53.255" viewBox="0 0 53.255 53.255">
  <g id="Group_16733" data-name="Group 16733" transform="translate(-444 -7272.465)">
    <path id="Path_71" data-name="Path 71" d="M26.627,0A26.627,26.627,0,1,1,0,26.628,26.629,26.629,0,0,1,26.627,0Z" transform="translate(444 7272.465)" fill="#f4b459"/>
    <path id="Path_72" data-name="Path 72" d="M94.332,89.333a3.3,3.3,0,1,0,3.3,3.3A3.3,3.3,0,0,0,94.332,89.333Zm-.975-8.241a2.32,2.32,0,0,0,0,4.641,7.9,7.9,0,0,1,7.89,7.89,2.321,2.321,0,0,0,4.642,0A12.545,12.545,0,0,0,93.356,81.092Zm.045-8.253a2.373,2.373,0,1,0,0,4.746A16,16,0,0,1,109.387,93.57a2.373,2.373,0,1,0,4.746,0A20.757,20.757,0,0,0,93.4,72.839Z" transform="translate(369.721 7213.028)" fill="#fff"/>
  </g>
</svg>
