<svg xmlns="http://www.w3.org/2000/svg" width="54" height="54" viewBox="0 0 54 54">
  <g id="Group_16729" data-name="Group 16729" transform="translate(-152 -7272.092)">
    <circle id="Ellipse_12" data-name="Ellipse 12" cx="27" cy="27" r="27" transform="translate(152 7272.092)" fill="#55acee"/>
    <path id="Path_73" data-name="Path 73" d="M63.966,37.647a16.321,16.321,0,0,1-4.58,1.214,7.789,7.789,0,0,0,3.506-4.269,16.286,16.286,0,0,1-5.063,1.872,8.091,8.091,0,0,0-5.821-2.436,7.85,7.85,0,0,0-7.973,7.718,7.469,7.469,0,0,0,.208,1.759A22.89,22.89,0,0,1,27.808,35.44a7.5,7.5,0,0,0-1.08,3.88,7.655,7.655,0,0,0,3.547,6.424,8.118,8.118,0,0,1-3.611-.966c0,.033,0,.066,0,.1a7.79,7.79,0,0,0,6.4,7.567,8.263,8.263,0,0,1-3.6.134,7.953,7.953,0,0,0,7.448,5.359,16.337,16.337,0,0,1-9.9,3.3,16.581,16.581,0,0,1-1.9-.108A23.1,23.1,0,0,0,37.324,64.6,22.154,22.154,0,0,0,60.01,42.639q0-.5-.023-1a15.892,15.892,0,0,0,3.979-3.994Z" transform="translate(134.549 7251.503)" fill="#f1f2f2"/>
  </g>
</svg>
