<svg xmlns="http://www.w3.org/2000/svg" xmlns:xlink="http://www.w3.org/1999/xlink" width="167" height="318" viewBox="0 0 167 318">
  <defs>
    <clipPath id="clip-path">
      <rect id="Rectangle_9798" data-name="Rectangle 9798" width="167" height="318" transform="translate(0 4029)" fill="#fff" stroke="#707070" stroke-width="1"/>
    </clipPath>
  </defs>
  <g id="Mask_Group_52" data-name="Mask Group 52" transform="translate(0 -4029)" clip-path="url(#clip-path)">
    <g id="Group_16715" data-name="Group 16715" transform="translate(-743.975 3770.604)" opacity="0.5">
      <g id="Group_16611" data-name="Group 16611" transform="translate(723.45 496.831)">
        <path id="Path_40216" data-name="Path 40216" d="M690.617,359.283a5.188,5.188,0,1,1-5.189-5.187A5.189,5.189,0,0,1,690.617,359.283Z" transform="translate(-680.241 -354.096)" fill="#3aa4e0"/>
        <path id="Path_40217" data-name="Path 40217" d="M702.205,359.283a5.187,5.187,0,1,1-5.187-5.187A5.188,5.188,0,0,1,702.205,359.283Z" transform="translate(-658.636 -354.096)" fill="#3aa4e0"/>
        <path id="Path_40218" data-name="Path 40218" d="M713.8,359.283a5.187,5.187,0,1,1-5.187-5.187A5.188,5.188,0,0,1,713.8,359.283Z" transform="translate(-637.031 -354.096)" fill="#3aa4e0"/>
        <path id="Path_40219" data-name="Path 40219" d="M725.387,359.283A5.187,5.187,0,1,1,720.2,354.1,5.188,5.188,0,0,1,725.387,359.283Z" transform="translate(-615.425 -354.096)" fill="#3aa4e0"/>
      </g>
      <g id="Group_16612" data-name="Group 16612" transform="translate(690.256 465.502)">
        <path id="Path_40220" data-name="Path 40220" d="M679.024,348.344a5.187,5.187,0,1,1-5.187-5.187A5.188,5.188,0,0,1,679.024,348.344Z" transform="translate(-668.651 -343.157)" fill="#3aa4e0"/>
        <path id="Path_40221" data-name="Path 40221" d="M690.617,348.344a5.188,5.188,0,1,1-5.189-5.187A5.188,5.188,0,0,1,690.617,348.344Z" transform="translate(-647.048 -343.157)" fill="#3aa4e0"/>
        <path id="Path_40222" data-name="Path 40222" d="M702.205,348.344a5.187,5.187,0,1,1-5.187-5.187A5.187,5.187,0,0,1,702.205,348.344Z" transform="translate(-625.443 -343.157)" fill="#3aa4e0"/>
        <path id="Path_40223" data-name="Path 40223" d="M713.8,348.344a5.187,5.187,0,1,1-5.187-5.187A5.187,5.187,0,0,1,713.8,348.344Z" transform="translate(-603.837 -343.157)" fill="#3aa4e0"/>
        <path id="Path_40224" data-name="Path 40224" d="M725.387,348.344a5.187,5.187,0,1,1-5.187-5.187A5.187,5.187,0,0,1,725.387,348.344Z" transform="translate(-582.232 -343.157)" fill="#3aa4e0"/>
        <path id="Path_40225" data-name="Path 40225" d="M736.977,348.344a5.187,5.187,0,1,1-5.187-5.187A5.186,5.186,0,0,1,736.977,348.344Z" transform="translate(-560.629 -343.157)" fill="#3aa4e0"/>
      </g>
      <g id="Group_16613" data-name="Group 16613" transform="translate(690.256 434.17)">
        <path id="Path_40226" data-name="Path 40226" d="M679.024,337.406a5.187,5.187,0,1,1-5.187-5.189A5.187,5.187,0,0,1,679.024,337.406Z" transform="translate(-668.651 -332.217)" fill="#3aa4e0"/>
        <path id="Path_40227" data-name="Path 40227" d="M690.617,337.406a5.188,5.188,0,1,1-5.189-5.189A5.188,5.188,0,0,1,690.617,337.406Z" transform="translate(-647.048 -332.217)" fill="#3aa4e0"/>
        <path id="Path_40228" data-name="Path 40228" d="M702.205,337.406a5.187,5.187,0,1,1-5.187-5.189A5.187,5.187,0,0,1,702.205,337.406Z" transform="translate(-625.443 -332.217)" fill="#3aa4e0"/>
        <path id="Path_40229" data-name="Path 40229" d="M713.8,337.406a5.187,5.187,0,1,1-5.187-5.189A5.187,5.187,0,0,1,713.8,337.406Z" transform="translate(-603.837 -332.217)" fill="#3aa4e0"/>
        <path id="Path_40230" data-name="Path 40230" d="M725.387,337.406a5.187,5.187,0,1,1-5.187-5.189A5.187,5.187,0,0,1,725.387,337.406Z" transform="translate(-582.232 -332.217)" fill="#3aa4e0"/>
        <path id="Path_40231" data-name="Path 40231" d="M736.977,337.406a5.187,5.187,0,1,1-5.187-5.189A5.186,5.186,0,0,1,736.977,337.406Z" transform="translate(-560.629 -332.217)" fill="#3aa4e0"/>
      </g>
      <g id="Group_16614" data-name="Group 16614" transform="translate(657.06 402.842)">
        <path id="Path_40232" data-name="Path 40232" d="M667.433,326.465a5.187,5.187,0,1,1-5.187-5.187A5.187,5.187,0,0,1,667.433,326.465Z" transform="translate(-657.06 -321.278)" fill="#3aa4e0"/>
        <path id="Path_40233" data-name="Path 40233" d="M679.024,326.465a5.187,5.187,0,1,1-5.187-5.187A5.187,5.187,0,0,1,679.024,326.465Z" transform="translate(-635.455 -321.278)" fill="#3aa4e0"/>
        <path id="Path_40234" data-name="Path 40234" d="M690.617,326.465a5.188,5.188,0,1,1-5.189-5.187A5.188,5.188,0,0,1,690.617,326.465Z" transform="translate(-613.851 -321.278)" fill="#3aa4e0"/>
        <path id="Path_40235" data-name="Path 40235" d="M702.205,326.465a5.187,5.187,0,1,1-5.187-5.187A5.187,5.187,0,0,1,702.205,326.465Z" transform="translate(-592.246 -321.278)" fill="#3aa4e0"/>
        <path id="Path_40236" data-name="Path 40236" d="M713.8,326.465a5.187,5.187,0,1,1-5.187-5.187A5.187,5.187,0,0,1,713.8,326.465Z" transform="translate(-570.641 -321.278)" fill="#3aa4e0"/>
        <path id="Path_40237" data-name="Path 40237" d="M725.387,326.465a5.187,5.187,0,1,1-5.187-5.187A5.187,5.187,0,0,1,725.387,326.465Z" transform="translate(-549.036 -321.278)" fill="#3aa4e0"/>
        <path id="Path_40238" data-name="Path 40238" d="M736.977,326.465a5.187,5.187,0,1,1-5.187-5.187A5.186,5.186,0,0,1,736.977,326.465Z" transform="translate(-527.432 -321.278)" fill="#3aa4e0"/>
        <path id="Path_40239" data-name="Path 40239" d="M748.568,326.465a5.187,5.187,0,1,1-5.187-5.187A5.187,5.187,0,0,1,748.568,326.465Z" transform="translate(-505.827 -321.278)" fill="#3aa4e0"/>
      </g>
      <g id="Group_16615" data-name="Group 16615" transform="translate(657.06 371.51)">
        <path id="Path_40240" data-name="Path 40240" d="M667.433,315.525a5.187,5.187,0,1,1-5.187-5.187A5.188,5.188,0,0,1,667.433,315.525Z" transform="translate(-657.06 -310.338)" fill="#3aa4e0"/>
        <path id="Path_40241" data-name="Path 40241" d="M679.024,315.525a5.187,5.187,0,1,1-5.187-5.187A5.188,5.188,0,0,1,679.024,315.525Z" transform="translate(-635.455 -310.338)" fill="#3aa4e0"/>
        <path id="Path_40242" data-name="Path 40242" d="M690.617,315.525a5.188,5.188,0,1,1-5.189-5.187A5.189,5.189,0,0,1,690.617,315.525Z" transform="translate(-613.851 -310.338)" fill="#3aa4e0"/>
        <path id="Path_40243" data-name="Path 40243" d="M702.205,315.525a5.187,5.187,0,1,1-5.187-5.187A5.188,5.188,0,0,1,702.205,315.525Z" transform="translate(-592.246 -310.338)" fill="#3aa4e0"/>
        <path id="Path_40244" data-name="Path 40244" d="M713.8,315.525a5.187,5.187,0,1,1-5.187-5.187A5.188,5.188,0,0,1,713.8,315.525Z" transform="translate(-570.641 -310.338)" fill="#3aa4e0"/>
        <path id="Path_40245" data-name="Path 40245" d="M725.387,315.525a5.187,5.187,0,1,1-5.187-5.187A5.188,5.188,0,0,1,725.387,315.525Z" transform="translate(-549.036 -310.338)" fill="#3aa4e0"/>
        <path id="Path_40246" data-name="Path 40246" d="M736.977,315.525a5.187,5.187,0,1,1-5.187-5.187A5.186,5.186,0,0,1,736.977,315.525Z" transform="translate(-527.432 -310.338)" fill="#3aa4e0"/>
        <path id="Path_40247" data-name="Path 40247" d="M748.568,315.525a5.187,5.187,0,1,1-5.187-5.187A5.188,5.188,0,0,1,748.568,315.525Z" transform="translate(-505.827 -310.338)" fill="#3aa4e0"/>
      </g>
      <g id="Group_16616" data-name="Group 16616" transform="translate(690.256 340.181)">
        <path id="Path_40248" data-name="Path 40248" d="M679.024,304.586a5.187,5.187,0,1,1-5.187-5.187A5.188,5.188,0,0,1,679.024,304.586Z" transform="translate(-668.651 -299.399)" fill="#3aa4e0"/>
        <path id="Path_40249" data-name="Path 40249" d="M690.617,304.586a5.188,5.188,0,1,1-5.189-5.187A5.188,5.188,0,0,1,690.617,304.586Z" transform="translate(-647.048 -299.399)" fill="#3aa4e0"/>
        <path id="Path_40250" data-name="Path 40250" d="M702.205,304.586a5.187,5.187,0,1,1-5.187-5.187A5.187,5.187,0,0,1,702.205,304.586Z" transform="translate(-625.443 -299.399)" fill="#3aa4e0"/>
        <path id="Path_40251" data-name="Path 40251" d="M713.8,304.586a5.187,5.187,0,1,1-5.187-5.187A5.187,5.187,0,0,1,713.8,304.586Z" transform="translate(-603.837 -299.399)" fill="#3aa4e0"/>
        <path id="Path_40252" data-name="Path 40252" d="M725.387,304.586A5.187,5.187,0,1,1,720.2,299.4,5.187,5.187,0,0,1,725.387,304.586Z" transform="translate(-582.232 -299.399)" fill="#3aa4e0"/>
        <path id="Path_40253" data-name="Path 40253" d="M736.977,304.586a5.187,5.187,0,1,1-5.187-5.187A5.186,5.186,0,0,1,736.977,304.586Z" transform="translate(-560.629 -299.399)" fill="#3aa4e0"/>
      </g>
      <g id="Group_16617" data-name="Group 16617" transform="translate(690.256 308.852)">
        <path id="Path_40254" data-name="Path 40254" d="M679.024,293.647a5.187,5.187,0,1,1-5.187-5.187A5.187,5.187,0,0,1,679.024,293.647Z" transform="translate(-668.651 -288.46)" fill="#3aa4e0"/>
        <path id="Path_40255" data-name="Path 40255" d="M690.617,293.647a5.188,5.188,0,1,1-5.189-5.187A5.188,5.188,0,0,1,690.617,293.647Z" transform="translate(-647.048 -288.46)" fill="#3aa4e0"/>
        <path id="Path_40256" data-name="Path 40256" d="M702.205,293.647a5.187,5.187,0,1,1-5.187-5.187A5.187,5.187,0,0,1,702.205,293.647Z" transform="translate(-625.443 -288.46)" fill="#3aa4e0"/>
        <path id="Path_40257" data-name="Path 40257" d="M713.8,293.647a5.187,5.187,0,1,1-5.187-5.187A5.187,5.187,0,0,1,713.8,293.647Z" transform="translate(-603.837 -288.46)" fill="#3aa4e0"/>
        <path id="Path_40258" data-name="Path 40258" d="M725.387,293.647a5.187,5.187,0,1,1-5.187-5.187A5.187,5.187,0,0,1,725.387,293.647Z" transform="translate(-582.232 -288.46)" fill="#3aa4e0"/>
        <path id="Path_40259" data-name="Path 40259" d="M736.977,293.647a5.187,5.187,0,1,1-5.187-5.187A5.186,5.186,0,0,1,736.977,293.647Z" transform="translate(-560.629 -288.46)" fill="#3aa4e0"/>
      </g>
      <g id="Group_16618" data-name="Group 16618" transform="translate(723.45 277.52)">
        <path id="Path_40260" data-name="Path 40260" d="M690.617,282.707a5.188,5.188,0,1,1-5.189-5.187A5.188,5.188,0,0,1,690.617,282.707Z" transform="translate(-680.241 -277.52)" fill="#3aa4e0"/>
        <path id="Path_40261" data-name="Path 40261" d="M702.205,282.707a5.187,5.187,0,1,1-5.187-5.187A5.187,5.187,0,0,1,702.205,282.707Z" transform="translate(-658.636 -277.52)" fill="#3aa4e0"/>
        <path id="Path_40262" data-name="Path 40262" d="M713.8,282.707a5.187,5.187,0,1,1-5.187-5.187A5.187,5.187,0,0,1,713.8,282.707Z" transform="translate(-637.031 -277.52)" fill="#3aa4e0"/>
        <path id="Path_40263" data-name="Path 40263" d="M725.387,282.707a5.187,5.187,0,1,1-5.187-5.187A5.187,5.187,0,0,1,725.387,282.707Z" transform="translate(-615.425 -277.52)" fill="#3aa4e0"/>
      </g>
    </g>
  </g>
</svg>
