<svg xmlns="http://www.w3.org/2000/svg" xmlns:xlink="http://www.w3.org/1999/xlink" width="69.94" height="63.333" viewBox="0 0 69.94 63.333">
  <defs>
    <linearGradient id="linear-gradient" x1="0.5" x2="0.5" y2="1" gradientUnits="objectBoundingBox">
      <stop offset="0" stop-color="#1579b0"/>
      <stop offset="1" stop-color="#51bbf3"/>
    </linearGradient>
  </defs>
  <path id="choice_1_" data-name="choice (1)" d="M40.785,68.845a10.662,10.662,0,1,0-10.626,0,18.829,18.829,0,0,0-13.483,18.03,1.1,1.1,0,0,0,1.095,1.095h35.4a1.1,1.1,0,0,0,1.095-1.095A18.829,18.829,0,0,0,40.785,68.845Zm-10.224,8.7-2.758-5.4q.506-.265,1.032-.495l4.828,3.263Zm4.822,3.55h.178l1.127,4.684H34.256Zm.433-2.19h-.687l-.961-1.547,1.3-1.106,1.3,1.106Zm1.466-3.99,4.829-3.263q.526.23,1.032.495l-2.758,5.4ZM27,59.607a8.472,8.472,0,1,1,8.472,8.472A8.472,8.472,0,0,1,27,59.607ZM39.512,70.767l-4.04,2.73-4.04-2.73a16.651,16.651,0,0,1,8.08,0ZM25.928,73.293l3.312,6.481a1.095,1.095,0,0,0,1.684.337l1.556-1.319.869,1.4L32,85.781H18.9a16.607,16.607,0,0,1,7.027-12.487ZM38.941,85.781,37.6,80.191l.869-1.4,1.556,1.319a1.095,1.095,0,0,0,1.683-.337l3.312-6.481a16.608,16.608,0,0,1,7.027,12.487ZM30.885,33.994h.572v8.544a1.9,1.9,0,0,0,1.9,1.9h4.225a1.9,1.9,0,0,0,1.9-1.9V33.994h.572a1.711,1.711,0,0,0,1.353-2.757L36.826,25.3a1.711,1.711,0,0,0-2.708,0l-4.585,5.935a1.71,1.71,0,0,0,1.352,2.757Zm4.587-6.862,3.61,4.672h-.691A1.1,1.1,0,0,0,37.3,32.9V42.25h-3.65V32.9A1.1,1.1,0,0,0,32.552,31.8h-.691ZM11.211,43.746a1.71,1.71,0,0,0,2.907.992l.4-.4,6.041,6.041a1.9,1.9,0,0,0,2.69,0l2.987-2.988a1.9,1.9,0,0,0,0-2.69L20.2,38.657l.4-.4a1.711,1.711,0,0,0-.992-2.907l-7.439-.954a1.711,1.711,0,0,0-1.914,1.915Zm7.154-6.352-.488.488a1.1,1.1,0,0,0,0,1.548l6.612,6.612-2.581,2.581L15.3,42.012a1.1,1.1,0,0,0-1.549,0l-.489.488-.751-5.857ZM20.3,61.72V57.495a1.9,1.9,0,0,0-1.9-1.9H9.859v-.57A1.71,1.71,0,0,0,7.1,53.667L1.167,58.253a1.711,1.711,0,0,0,0,2.708L7.1,65.547a1.71,1.71,0,0,0,2.757-1.354v-.571H18.4A1.9,1.9,0,0,0,20.3,61.72Zm-2.19-.287H8.764a1.1,1.1,0,0,0-1.095,1.095v.691L3,59.607,7.669,56v.69a1.1,1.1,0,0,0,1.095,1.095h9.351ZM47.691,50.376a1.9,1.9,0,0,0,2.69,0l6.041-6.041.4.4a1.71,1.71,0,0,0,2.907-.992l.954-7.439a1.711,1.711,0,0,0-1.915-1.915l-7.439.954a1.71,1.71,0,0,0-.992,2.907l.4.4L44.7,44.7a1.9,1.9,0,0,0,0,2.69Zm5.377-10.945a1.1,1.1,0,0,0,0-1.549l-.489-.488,5.857-.751L57.685,42.5l-.488-.488a1.1,1.1,0,0,0-1.549,0l-6.612,6.612-2.581-2.581Zm16.71,18.822-5.935-4.586a1.71,1.71,0,0,0-2.757,1.354v.571H52.542a1.9,1.9,0,0,0-1.9,1.9V61.72a1.9,1.9,0,0,0,1.9,1.9h8.544v.57a1.708,1.708,0,0,0,2.757,1.355l5.935-4.586a1.711,1.711,0,0,0,0-2.707Zm-6.5,4.964v-.691a1.1,1.1,0,0,0-1.095-1.095H52.83v-3.65h9.351a1.1,1.1,0,0,0,1.095-1.095V56l4.672,3.61Z" transform="translate(-0.502 -24.637)" fill="url(#linear-gradient)"/>
</svg>
