<svg id="_OUTLINE" data-name=" OUTLINE" xmlns="http://www.w3.org/2000/svg" xmlns:xlink="http://www.w3.org/1999/xlink" width="47.212" height="47.212" viewBox="0 0 47.212 47.212">
  <defs>
    <linearGradient id="linear-gradient" x1="0.5" x2="0.5" y2="1" gradientUnits="objectBoundingBox">
      <stop offset="0" stop-color="#1579b0"/>
      <stop offset="1" stop-color="#51bbf3"/>
    </linearGradient>
  </defs>
  <path id="Path_40583" data-name="Path 40583" d="M60.851,16H18.361A2.363,2.363,0,0,0,16,18.361V52.983a2.363,2.363,0,0,0,2.361,2.361H34.614l-1.888,6.295H30.164v1.574H49.048V61.638H46.486L44.6,55.343H60.851a2.363,2.363,0,0,0,2.361-2.361V18.361A2.363,2.363,0,0,0,60.851,16ZM39.606,20.721a.787.787,0,1,1-.787.787A.787.787,0,0,1,39.606,20.721Zm5.237,40.917H34.369l1.888-6.295h6.7Zm16.795-8.656a.788.788,0,0,1-.787.787H18.361a.788.788,0,0,1-.787-.787V50.622H61.638Zm0-26.753H57.569a2.345,2.345,0,0,0-1.669.691l-.326.326a2.361,2.361,0,1,0,1.113,1.113l.326-.326a.781.781,0,0,1,.556-.23h4.069V39.28l-1.343-1.343a2.345,2.345,0,0,0-1.669-.691H56.782a2.361,2.361,0,1,0,0,1.574h1.844a.781.781,0,0,1,.556.23l2.456,2.456v7.543H55.669l-4.03-4.03a2.345,2.345,0,0,0-1.669-.691H46.552a2.361,2.361,0,1,0,0,1.574H49.97a.781.781,0,0,1,.556.23l2.917,2.917H24.195l2.917-2.917a.781.781,0,0,1,.556-.23H32.66a2.361,2.361,0,1,0,0-1.574H27.668A2.345,2.345,0,0,0,26,45.019l-4.03,4.03h-4.4V41.18h4.069a2.345,2.345,0,0,0,1.669-.691l.921-.921a2.363,2.363,0,1,0-1.4-.825l-.633.633a.781.781,0,0,1-.556.23H17.574V30.164H22.43a2.361,2.361,0,1,0,0-1.574H17.574V18.361a.787.787,0,0,1,.512-.736L22.064,21.6a2.345,2.345,0,0,0,1.669.691h4.2a2.361,2.361,0,1,0,0-1.574h-4.2a.781.781,0,0,1-.556-.23L20.26,17.574H38.819v1.709a2.361,2.361,0,1,0,1.574,0V17.574H52.657l-1.8,1.8a2.361,2.361,0,1,0,1.113,1.113l2.917-2.917h5.969a.788.788,0,0,1,.787.787Zm-6.295,3.147a.787.787,0,1,1-.787-.787A.787.787,0,0,1,55.343,29.377Zm0,8.656a.787.787,0,1,1-.787-.787.787.787,0,0,1,.787.787ZM45.114,45.114a.787.787,0,1,1-.787-.787A.787.787,0,0,1,45.114,45.114Zm-11.016,0a.787.787,0,1,1,.787.787A.787.787,0,0,1,34.1,45.114ZM23.869,37.245a.787.787,0,1,1,.787.787A.787.787,0,0,1,23.869,37.245Zm0-7.869a.787.787,0,1,1,.787.787A.787.787,0,0,1,23.869,29.377Zm5.508-7.869a.787.787,0,1,1,.787.787A.787.787,0,0,1,29.377,21.508Zm21.245,0a.787.787,0,1,1-.787-.787A.787.787,0,0,1,50.622,21.508Z" transform="translate(-16 -16)" fill="url(#linear-gradient)"/>
  <path id="Path_40584" data-name="Path 40584" d="M163.672,112H146.361A2.363,2.363,0,0,0,144,114.361v11.016a2.363,2.363,0,0,0,2.361,2.361h17.311a2.363,2.363,0,0,0,2.361-2.361V114.361A2.363,2.363,0,0,0,163.672,112Zm-3.934,1.574h1.574v3.934h-1.574Zm-7.869,12.59h-5.508a.788.788,0,0,1-.787-.787V114.361a.788.788,0,0,1,.787-.787h5.508Zm12.59-.787a.788.788,0,0,1-.787.787H153.442v-12.59h4.721v5.508h4.721v-5.508h.787a.788.788,0,0,1,.787.787Z" transform="translate(-131.41 -102.558)" fill="url(#linear-gradient)"/>
</svg>
