<svg id="resume" xmlns="http://www.w3.org/2000/svg" xmlns:xlink="http://www.w3.org/1999/xlink" width="52.508" height="52.511" viewBox="0 0 52.508 52.511">
  <defs>
    <linearGradient id="linear-gradient" x1="0.5" x2="0.5" y2="1" gradientUnits="objectBoundingBox">
      <stop offset="0" stop-color="#1579b0"/>
      <stop offset="1" stop-color="#51bbf3"/>
    </linearGradient>
  </defs>
  <g id="Page-1_64_" transform="translate(0 0)">
    <g id="_x30_65---Write-Resume">
      <path id="Shape_363_" d="M6.144,52.511H44.653a6.134,6.134,0,0,0,6.126-6.126V43.76a1.75,1.75,0,0,0-1.75-1.75h-.875V27.751l3.637-3.637a2.523,2.523,0,0,0,0-3.56l-2.316-2.307a2.477,2.477,0,0,0-1.321-.7V10.5a4.381,4.381,0,0,0-4.376-4.376v-3.5A2.626,2.626,0,0,0,41.153,0H14.9a.875.875,0,0,0-.619.256l-5.87,5.87H7.019A4.381,4.381,0,0,0,2.644,10.5V42.009H1.768a1.75,1.75,0,0,0-1.75,1.75v2.626a6.133,6.133,0,0,0,6.126,6.126ZM46.4,42.009H43.778V32.128L46.4,29.5ZM31.562,38.475l1.381-4.157,2.773,2.773ZM37.27,36.17l-3.4-3.4L44.221,22.417l3.4,3.4ZM50.552,21.792a.758.758,0,0,1,0,1.084l-1.7,1.7-3.395-3.4,1.7-1.7a.753.753,0,0,1,1.072,0ZM46.4,10.5v7.369a2.492,2.492,0,0,0-.483.371l-2.143,2.143V7.877A2.626,2.626,0,0,1,46.4,10.5ZM42.027,2.626V22.136L32.044,32.12a1.664,1.664,0,0,0-.438.691l-1.744,5.213a1.7,1.7,0,0,0-.087.485H11.4a.875.875,0,1,0,0,1.75H31.469a1.712,1.712,0,0,0,.536-.087l5.235-1.744a1.737,1.737,0,0,0,.644-.405l4.143-4.143v8.131H8.77V8.752h4.376a2.626,2.626,0,0,0,2.626-2.626V1.75H41.152a.875.875,0,0,1,.875.875ZM17.522,43.76H33.275v.875a1.75,1.75,0,0,1-1.75,1.75H19.272a1.75,1.75,0,0,1-1.75-1.75ZM10.007,7l4.014-4.014V6.126A.875.875,0,0,1,13.146,7ZM4.394,10.5A2.626,2.626,0,0,1,7.019,7.877V42.009H4.394ZM1.768,43.76h14v.875a3.5,3.5,0,0,0,3.5,3.5H31.525a3.5,3.5,0,0,0,3.5-3.5V43.76h14v2.626a4.381,4.381,0,0,1-4.376,4.376H6.144a4.381,4.381,0,0,1-4.376-4.376Z" transform="translate(-0.018 0)" fill="url(#linear-gradient)"/>
      <path id="Shape_362_" d="M103.293,445.484h1.75a.875.875,0,1,0,0-1.75h-1.75a.875.875,0,1,0,0,1.75Z" transform="translate(-91.916 -398.224)" fill="url(#linear-gradient)"/>
      <ellipse id="Oval_9_" cx="0.875" cy="0.875" rx="0.875" ry="0.875" transform="translate(3.501 45.51)" fill="url(#linear-gradient)"/>
      <ellipse id="Oval_8_" cx="0.875" cy="0.875" rx="0.875" ry="0.875" transform="translate(7.002 45.51)" fill="url(#linear-gradient)"/>
      <path id="Shape_361_" d="M241.576,53.313h10.5a2.626,2.626,0,0,0,2.626-2.626V48.062a5.256,5.256,0,0,0-4.094-5.118,5.251,5.251,0,1,0-7.565,0,5.256,5.256,0,0,0-4.094,5.118v2.626A2.626,2.626,0,0,0,241.576,53.313Zm6.564-8.752-.731,1.75h-1.163l-.732-1.75Zm-1.812,3.5h1l.972,3.5h-2.942Zm6.625,0v2.626a.875.875,0,0,1-.875.875h-1.963l-1.2-4.318,1.1-2.626a3.5,3.5,0,0,1,2.941,3.443Zm-6.126-12.253a3.5,3.5,0,1,1-3.5,3.5A3.5,3.5,0,0,1,246.827,35.809ZM240.7,48.062a3.5,3.5,0,0,1,2.942-3.444l1.1,2.626-1.2,4.319h-1.963a.875.875,0,0,1-.875-.875Z" transform="translate(-214.445 -30.558)" fill="url(#linear-gradient)"/>
      <path id="Shape_360_" d="M103.293,110.933a.875.875,0,1,0,0,1.75h10.5a.875.875,0,1,0,0-1.75Z" transform="translate(-91.916 -99.556)" fill="url(#linear-gradient)"/>
      <path id="Shape_359_" d="M103.293,155.351h10.5a.875.875,0,1,0,0-1.75h-10.5a.875.875,0,1,0,0,1.75Z" transform="translate(-91.916 -137.847)" fill="url(#linear-gradient)"/>
      <path id="Shape_358_" d="M103.293,198.017h10.5a.875.875,0,1,0,0-1.75h-10.5a.875.875,0,1,0,0,1.75Z" transform="translate(-91.916 -176.138)" fill="url(#linear-gradient)"/>
      <path id="Shape_357_" d="M125.173,247.467h-21.88a.875.875,0,1,0,0,1.75h21.88a.875.875,0,1,0,0-1.75Z" transform="translate(-91.916 -222.086)" fill="url(#linear-gradient)"/>
      <path id="Shape_356_" d="M119.922,332.8H103.293a.875.875,0,1,0,0,1.75h16.629a.875.875,0,1,0,0-1.75Z" transform="translate(-91.916 -298.668)" fill="url(#linear-gradient)"/>
      <path id="Shape_355_" d="M103.293,291.884h12.253a.875.875,0,0,0,0-1.75H103.293a.875.875,0,0,0,0,1.75Z" transform="translate(-91.916 -260.377)" fill="url(#linear-gradient)"/>
    </g>
  </g>
</svg>
