<svg xmlns="http://www.w3.org/2000/svg" xmlns:xlink="http://www.w3.org/1999/xlink" width="67.844" height="74" viewBox="0 0 67.844 74">
  <defs>
    <linearGradient id="linear-gradient" x1="0.5" x2="0.5" y2="1" gradientUnits="objectBoundingBox">
      <stop offset="0" stop-color="#1579b0"/>
      <stop offset="1" stop-color="#51bbf3"/>
    </linearGradient>
  </defs>
  <path id="self-development" d="M94.584,46.4H30.1a1.177,1.177,0,0,0-1.177,1.177v4.364a1.177,1.177,0,0,0,.754,1.1l4.771,1.836a28.636,28.636,0,0,0,3.011,7.263l-2.076,4.675a1.177,1.177,0,0,0,.243,1.31L41.794,74.3a1.178,1.178,0,0,0,1.31.243l4.676-2.077a28.636,28.636,0,0,0,7.26,3.01l1.837,4.772a1.177,1.177,0,0,0,1.1.754H66.7a1.177,1.177,0,0,0,1.1-.754l1.836-4.771A28.626,28.626,0,0,0,76.9,72.464l4.675,2.077a1.177,1.177,0,0,0,1.31-.244l6.171-6.171a1.177,1.177,0,0,0,.243-1.31l-2.077-4.676a28.636,28.636,0,0,0,3.01-7.26l4.772-1.837a1.177,1.177,0,0,0,.754-1.1V47.579A1.177,1.177,0,0,0,94.584,46.4ZM77.058,48.756a14.764,14.764,0,0,1-29.434,0Zm16.349,2.378L88.818,52.9a1.178,1.178,0,0,0-.722.826,26.3,26.3,0,0,1-3.2,7.713,1.177,1.177,0,0,0-.073,1.1l2,4.5L81.794,72.06l-4.5-2a1.177,1.177,0,0,0-1.1.074,26.283,26.283,0,0,1-7.715,3.2,1.177,1.177,0,0,0-.826.722L65.9,78.645h-7.11l-1.766-4.589a1.177,1.177,0,0,0-.826-.722,26.3,26.3,0,0,1-7.713-3.2,1.177,1.177,0,0,0-1.1-.073l-4.5,2L37.86,67.032l2-4.5a1.177,1.177,0,0,0-.074-1.1,26.3,26.3,0,0,1-3.2-7.715,1.177,1.177,0,0,0-.722-.826l-4.588-1.766V48.756H45.263a17.118,17.118,0,0,0,34.155,0H93.407ZM66.224,22.6a1.177,1.177,0,0,0-1.177,1.177V43.216a1.177,1.177,0,0,0,1.177,1.177h5.392a1.177,1.177,0,0,0,1.177-1.177V23.775A1.177,1.177,0,0,0,71.616,22.6Zm4.214,19.441H67.4V24.953h3.037Zm7.27-15.763a1.177,1.177,0,0,0-1.177,1.177V43.215a1.177,1.177,0,0,0,1.177,1.177H83.1a1.177,1.177,0,0,0,1.177-1.177V27.452A1.177,1.177,0,0,0,83.1,26.275Zm4.214,15.763H78.886V28.63h3.037ZM94.584,15.525H89.192A1.177,1.177,0,0,0,88.015,16.7V43.215a1.177,1.177,0,0,0,1.177,1.177h5.392a1.177,1.177,0,0,0,1.177-1.177V16.7A1.177,1.177,0,0,0,94.584,15.525ZM93.407,42.038H90.37V17.88h3.037ZM54.74,44.393h5.392a1.177,1.177,0,0,0,1.177-1.177V32.872a1.177,1.177,0,0,0-1.177-1.177H54.74a1.177,1.177,0,0,0-1.177,1.177V43.215A1.177,1.177,0,0,0,54.74,44.393Zm1.177-10.344h3.037v7.989H55.918Zm.581-10.9a1.177,1.177,0,0,1,.226-1.65l11.484-8.72a1.177,1.177,0,0,1,1.177-.144l10.788,4.639,7.592-6.907-1.23,0h0a1.177,1.177,0,0,1,0-2.355L90.817,8h0a1.177,1.177,0,0,1,1.155,1.406l-.832,4.209a1.177,1.177,0,0,1-2.31-.457l.14-.709L81.2,19.525a1.178,1.178,0,0,1-1.257.211L69.086,15.068l-10.937,8.3a1.177,1.177,0,0,1-1.65-.226ZM30.1,44.393H51.349a1.177,1.177,0,0,0,1.171-1.3,11.829,11.829,0,0,0-7.537-9.805,6.581,6.581,0,1,0-8.519,0,11.829,11.829,0,0,0-7.538,9.805,1.177,1.177,0,0,0,1.171,1.3Zm6.4-16.119A4.226,4.226,0,1,1,40.726,32.5H40.72A4.231,4.231,0,0,1,36.5,28.274Zm4.223,6.581h.006a9.488,9.488,0,0,1,9.221,7.183H31.5A9.488,9.488,0,0,1,40.72,34.855Z" transform="translate(-28.418 -7.5)" stroke="rgba(0,0,0,0)" stroke-width="1" fill="url(#linear-gradient)"/>
</svg>
