<svg xmlns="http://www.w3.org/2000/svg" xmlns:xlink="http://www.w3.org/1999/xlink" width="75.486" height="66.302" viewBox="0 0 75.486 66.302">
  <defs>
    <linearGradient id="linear-gradient" x1="0.5" x2="0.5" y2="1" gradientUnits="objectBoundingBox">
      <stop offset="0" stop-color="#1579b0"/>
      <stop offset="1" stop-color="#51bbf3"/>
    </linearGradient>
  </defs>
  <g id="write" transform="translate(0 0)">
    <path id="Path_40532" data-name="Path 40532" d="M72,85.605h5.032v2.516H72Zm0,0" transform="translate(-60.677 -72.143)" fill="url(#linear-gradient)"/>
    <path id="Path_40533" data-name="Path 40533" d="M120,85.605h15.1v2.516H120Zm0,0" transform="translate(-101.129 -72.143)" fill="url(#linear-gradient)"/>
    <path id="Path_40534" data-name="Path 40534" d="M72,133.605H94.646v2.516H72Zm0,0" transform="translate(-60.677 -112.594)" fill="url(#linear-gradient)"/>
    <path id="Path_40535" data-name="Path 40535" d="M72,181.6H87.1v2.516H72Zm0,0" transform="translate(-60.677 -153.046)" fill="url(#linear-gradient)"/>
    <path id="Path_40536" data-name="Path 40536" d="M72,229.605H94.646v2.516H72Zm0,0" transform="translate(-60.677 -193.497)" fill="url(#linear-gradient)"/>
    <path id="Path_40537" data-name="Path 40537" d="M72,277.605H94.646v2.516H72Zm0,0" transform="translate(-60.677 -233.949)" fill="url(#linear-gradient)"/>
    <path id="Path_40538" data-name="Path 40538" d="M72,325.6H94.646v2.516H72Zm0,0" transform="translate(-60.677 -274.4)" fill="url(#linear-gradient)"/>
    <path id="Path_40539" data-name="Path 40539" d="M74.228,10.946H69.2V7.172a1.258,1.258,0,0,0-1.258-1.258H65.27A6.274,6.274,0,0,0,52.941,4.67l-.33,1.244H42.775A6.292,6.292,0,0,0,37.743,8.43,6.292,6.292,0,0,0,32.71,5.914H7.549A1.258,1.258,0,0,0,6.291,7.172v3.774H1.258A1.258,1.258,0,0,0,0,12.2v52.84A1.258,1.258,0,0,0,1.258,66.3H74.228a1.258,1.258,0,0,0,1.258-1.258V12.2a1.258,1.258,0,0,0-1.258-1.258Zm-21.1,29.407-3.271,2.564-1.215-.326-1.547-3.855,3.418-.7Zm8.235-28.217-7.3-1.954.326-1.215,7.3,1.953Zm-7.941.477,2.431.651L49.864,35.6l-2.755.564Zm.98,25.509L52.3,36.254l5.986-22.339,2.43.651Zm.974-32.8a3.774,3.774,0,0,1,7.292,1.953L62.34,8.491l-7.3-1.953ZM42.775,8.43h9.162L44.159,37.481a2.318,2.318,0,0,0-.038.276,2.42,2.42,0,0,0,.086.517l2.342,5.838a1.258,1.258,0,0,0,.842.747l-.652,2.431a1.259,1.259,0,0,0,.891,1.54,1.193,1.193,0,0,0,.326.044,1.258,1.258,0,0,0,1.214-.933l.652-2.431a1.257,1.257,0,0,0,1.1-.225L55.872,41.4A2.466,2.466,0,0,0,56.2,41a2.212,2.212,0,0,0,.107-.259L63.474,14l.976-3.648.512-1.924h1.718V58.753h-23.9A6.247,6.247,0,0,0,39,60.027V12.2A3.774,3.774,0,0,1,42.775,8.43Zm-33.969,0h23.9A3.774,3.774,0,0,1,36.485,12.2V60.027a6.247,6.247,0,0,0-3.774-1.273H8.807Zm-6.29,5.032H6.29V60.012A1.258,1.258,0,0,0,7.549,61.27H32.71a3.775,3.775,0,0,1,3.543,2.516H2.516ZM72.969,63.786H39.233a3.775,3.775,0,0,1,3.543-2.516H67.937A1.258,1.258,0,0,0,69.2,60.012V13.462h3.774Zm0,0" fill="url(#linear-gradient)"/>
    <path id="Path_40540" data-name="Path 40540" d="M184,181.6h5.032v2.516H184Zm0,0" transform="translate(-155.064 -153.046)" fill="url(#linear-gradient)"/>
  </g>
</svg>
