<svg xmlns="http://www.w3.org/2000/svg" xmlns:xlink="http://www.w3.org/1999/xlink" width="59.456" height="71.538" viewBox="0 0 59.456 71.538">
  <defs>
    <linearGradient id="linear-gradient" x1="0.5" x2="0.5" y2="1" gradientUnits="objectBoundingBox">
      <stop offset="0" stop-color="#1579b0"/>
      <stop offset="1" stop-color="#51bbf3"/>
    </linearGradient>
  </defs>
  <g id="strategic" transform="translate(-6.83 -1.5)">
    <path id="Path_40550" data-name="Path 40550" d="M53.13,68.148h-2.2V60.6a2.547,2.547,0,0,0-2.544-2.544h-.148V56.248a2.469,2.469,0,0,0-2.464-2.464H45.76c-5.6-5.3-5.008-15.545-4.678-18.623H43.83A2.278,2.278,0,0,0,46.1,32.89V24.1A2.278,2.278,0,0,0,43.83,21.83H41.99A2.278,2.278,0,0,0,39.719,24.1v2.192H38.55V24.1a2.278,2.278,0,0,0-2.271-2.271h-2A2.278,2.278,0,0,0,32.009,24.1v2.192h-1.17V24.1a2.278,2.278,0,0,0-2.271-2.271h-1.84A2.278,2.278,0,0,0,24.458,24.1V32.89a2.278,2.278,0,0,0,2.271,2.271h2.748c.329,3.077.931,13.308-4.678,18.623h-.011a2.469,2.469,0,0,0-2.464,2.464v1.805h-.148A2.547,2.547,0,0,0,19.632,60.6v7.551H17.417a1.067,1.067,0,1,0,0,2.135H53.186a1.066,1.066,0,0,0,1.067-1.067,1.116,1.116,0,0,0-1.124-1.067ZM26.57,32.879V24.09a.126.126,0,0,1,.125-.125h1.84a.126.126,0,0,1,.125.125v2.6a1.725,1.725,0,0,0,1.726,1.726h2A1.725,1.725,0,0,0,34.11,26.69v-2.6a.126.126,0,0,1,.125-.125h2a.126.126,0,0,1,.125.125v2.6a1.725,1.725,0,0,0,1.726,1.726h2a1.725,1.725,0,0,0,1.726-1.726v-2.6a.126.126,0,0,1,.125-.125h1.84a.126.126,0,0,1,.125.125v8.789a.126.126,0,0,1-.125.125h-17.1C26.627,33.015,26.57,32.958,26.57,32.879Zm5.042,2.271H38.9c-.341,3.338-.784,12.57,3.952,18.623H27.66C32.395,47.72,31.952,38.488,31.611,35.15Zm-7.188,21.1a.33.33,0,0,1,.329-.329H45.76a.33.33,0,0,1,.329.329v1.805H24.424Zm-2.7,11.9V60.6a.407.407,0,0,1,.409-.409H48.383a.407.407,0,0,1,.409.409v7.551Z" transform="translate(1.29 2.755)" fill="url(#linear-gradient)"/>
    <path id="Path_40551" data-name="Path 40551" d="M43.919,58.17H24.637a1.067,1.067,0,1,0,0,2.135H43.919a1.067,1.067,0,1,0,0-2.135Z" transform="translate(2.269 7.68)" fill="url(#linear-gradient)"/>
    <path id="Path_40552" data-name="Path 40552" d="M63.4,25.448H60.245a24.474,24.474,0,0,0-2.862-6.9L59.632,16.3a2.872,2.872,0,0,0,0-4.031L55.51,8.154a2.79,2.79,0,0,0-2.01-.84h-.011a2.835,2.835,0,0,0-2.021.84l-2.237,2.237a24.5,24.5,0,0,0-6.9-2.873V4.35A2.862,2.862,0,0,0,39.465,1.5H33.651A2.862,2.862,0,0,0,30.79,4.35V7.518a24.042,24.042,0,0,0-6.9,2.873L21.649,8.154a2.851,2.851,0,0,0-4.031,0l-4.133,4.122a2.872,2.872,0,0,0,0,4.031l2.248,2.248a24.2,24.2,0,0,0-2.862,6.9H9.68a2.859,2.859,0,0,0-2.85,2.85v5.825a2.859,2.859,0,0,0,2.85,2.85h3.168a24.2,24.2,0,0,0,2.862,6.9l-2.237,2.237a2.851,2.851,0,0,0,0,4.042l4.122,4.122a2.929,2.929,0,0,0,4.042,0l2.26-2.26.273.159a1.069,1.069,0,0,0,1.09-1.84l-.341-.2c-.2-.114-.409-.238-.6-.363a1.065,1.065,0,0,0-1.34.136l-2.85,2.85a.727.727,0,0,1-1.011,0l-4.122-4.122a.713.713,0,0,1,0-1.022l2.839-2.85a1.067,1.067,0,0,0,.136-1.34,22.173,22.173,0,0,1-3.214-7.756,1.068,1.068,0,0,0-1.045-.852H9.68a.712.712,0,0,1-.715-.715V28.3a.712.712,0,0,1,.715-.715h4.031a1.059,1.059,0,0,0,1.045-.852,22.207,22.207,0,0,1,3.214-7.744,1.08,1.08,0,0,0-.136-1.34l-2.85-2.862a.727.727,0,0,1,0-1.011l4.122-4.122a.706.706,0,0,1,1.011,0l2.85,2.85a1.067,1.067,0,0,0,1.351.136,22.23,22.23,0,0,1,7.744-3.225,1.068,1.068,0,0,0,.852-1.045V4.35a.712.712,0,0,1,.715-.715h5.814a.712.712,0,0,1,.715.715V8.37a1.059,1.059,0,0,0,.852,1.045,22.249,22.249,0,0,1,7.756,3.225A1.051,1.051,0,0,0,50.1,12.5l2.839-2.85a.6.6,0,0,1,.511-.216.654.654,0,0,1,.5.216l4.122,4.111a.741.741,0,0,1,0,1.022l-2.85,2.85a1.052,1.052,0,0,0-.136,1.34A22.225,22.225,0,0,1,58.3,26.731a1.068,1.068,0,0,0,1.045.852h4.008a.712.712,0,0,1,.715.715v5.825a.712.712,0,0,1-.715.715H59.348a1.059,1.059,0,0,0-1.045.852,22.121,22.121,0,0,1-3.214,7.756,1.068,1.068,0,0,0,.136,1.351l2.839,2.839a.738.738,0,0,1,.011,1.011l-4.133,4.122a.668.668,0,0,1-.5.2.762.762,0,0,1-.511-.2l-2.839-2.85a1.067,1.067,0,0,0-1.351-.136c-.2.136-.42.261-.625.375l-.329.193a1.069,1.069,0,0,0,1.09,1.84l.341-.159,2.248,2.26a2.835,2.835,0,0,0,2.021.84H53.5a2.836,2.836,0,0,0,2.01-.84l4.133-4.122a2.882,2.882,0,0,0,0-4.031L57.406,43.9a24.191,24.191,0,0,0,2.862-6.915h3.157a2.862,2.862,0,0,0,2.862-2.85V28.3a2.9,2.9,0,0,0-2.884-2.85Z" transform="translate(0 0)" fill="url(#linear-gradient)"/>
    <path id="Path_40553" data-name="Path 40553" d="M25.952,42.977a1.066,1.066,0,0,0-.182-1.5,14.983,14.983,0,1,1,18.543,0,1.067,1.067,0,0,0,.659,1.908,1.1,1.1,0,0,0,.659-.227,17.135,17.135,0,1,0-21.212,0,1.128,1.128,0,0,0,1.533-.182Z" transform="translate(1.499 1.503)" fill="url(#linear-gradient)"/>
  </g>
</svg>
