<svg xmlns="http://www.w3.org/2000/svg" width="61.371" height="73.667" viewBox="0 0 61.371 73.667">
  <path id="leadership_1_" data-name="leadership (1)" d="M108.779,13.723l1.762-2.569a1.189,1.189,0,0,0-.981-1.862h-8.2v-.12a1.189,1.189,0,1,0-2.379,0V20.942a3.849,3.849,0,0,0-.75.344h0l-4.024,2.407-5.79-1.534a3.829,3.829,0,0,0-4.68,2.712,3.789,3.789,0,0,0-.122.831L75.97,30.888a3.813,3.813,0,0,0-1.4,1.755,3.8,3.8,0,0,0-1.252.473L69.29,35.523,63.5,33.989a3.808,3.808,0,0,0-4.8,3.543l-7.639,5.185a3.829,3.829,0,0,0,4.3,6.338L59.5,46.246c.209,2.179.42,4.378.622,6.428L54.651,62.927a3.822,3.822,0,1,0,6.742,3.6l5.96-11.18a3.836,3.836,0,0,0,.438-1.167l.529.178,1.059,7.412a3.828,3.828,0,0,0,6.854,1.74,3.791,3.791,0,0,0,.721-2.835L75.56,50.948A3.785,3.785,0,0,0,73,47.866L67.143,45.89l-.291-3.1,1.982.525a3.847,3.847,0,0,0,2.994-.4l5.4-3.229a3.793,3.793,0,0,0,1.6-1.868,3.812,3.812,0,0,0,1.447-.594l4.139-2.808c.21,2.195.418,4.377.618,6.427L79.569,51.1a3.822,3.822,0,1,0,6.742,3.6l5.96-11.18a3.81,3.81,0,0,0,.436-1.167l.532.179L94.3,49.94a3.826,3.826,0,1,0,7.575-1.091l-1.394-9.741a3.814,3.814,0,0,0-2.565-3.077L92.057,34.06l-.288-3.1,1.981.523a3.827,3.827,0,0,0,3-.4l2.248-1.343a1.189,1.189,0,0,0,2.369-.146V28.329l.788-.471a3.825,3.825,0,0,0-.788-6.926V18.154h8.2a1.189,1.189,0,0,0,.981-1.862ZM54.022,47.087a1.453,1.453,0,0,1-2.016-.388,1.455,1.455,0,0,1,.388-2.014l6.528-4.431c.1,1.078.21,2.18.316,3.293Zm21.991-9.442-5.405,3.229a1.44,1.44,0,0,1-1.139.15l-.017,0-3.637-.964a1.189,1.189,0,0,0-1.489,1.261l.522,5.565a1.189,1.189,0,0,0,.8,1.016l6.59,2.225a1.423,1.423,0,0,1,.965,1.161L74.6,61.019a1.444,1.444,0,0,1-1.226,1.636,1.449,1.449,0,0,1-1.64-1.223L70.572,53.3a1.19,1.19,0,0,0-.8-.959l-2.8-.943a1.189,1.189,0,0,0-1.564,1.239l.064.674a1.424,1.424,0,0,1-.19.863l-.022.039-5.97,11.2a1.444,1.444,0,0,1-2.544-1.366l5.637-10.571a1.188,1.188,0,0,0,.134-.676c-.254-2.582-1.233-12.811-1.444-14.968a1.468,1.468,0,0,1,.041-.518,1.449,1.449,0,0,1,1.771-1.026l6.277,1.663a1.187,1.187,0,0,0,.915-.129L74.468,35.2a3.849,3.849,0,0,0,1.83,2.226,1.461,1.461,0,0,1-.285.223Zm2.927-2.388a1.452,1.452,0,0,1-1.633-2.4l6.533-4.431c.1,1.078.21,2.181.316,3.293Zm21.991-9.442-5.406,3.229a1.42,1.42,0,0,1-1.133.147l-.025-.007-3.637-.96a1.189,1.189,0,0,0-1.488,1.26l.518,5.565a1.19,1.19,0,0,0,.8,1.017l6.587,2.218a1.445,1.445,0,0,1,.971,1.163l1.394,9.741a1.448,1.448,0,0,1-2.866.413L95.489,41.47a1.19,1.19,0,0,0-.8-.959l-2.8-.943a1.189,1.189,0,0,0-1.562,1.247l.067.659a1.448,1.448,0,0,1-.189.871l-.022.039-5.968,11.2a1.441,1.441,0,0,1-.856.7,1.444,1.444,0,0,1-1.689-2.065L87.3,41.646a1.189,1.189,0,0,0,.134-.675C87.2,38.6,86.225,28.372,85.994,26a1.464,1.464,0,0,1,.041-.519,1.446,1.446,0,0,1,1.771-1.026l6.277,1.663A1.187,1.187,0,0,0,95,25.992l4.454-2.665a1.447,1.447,0,0,1,1.479,2.488Zm5.426-11.42.946,1.38h-5.941v-4.1H107.3l-.946,1.38A1.189,1.189,0,0,0,106.356,14.4Zm1.257,40.79a1.189,1.189,0,0,1-1.189,1.189H94.141v7.235A1.189,1.189,0,0,1,92.952,64.8H80.666v7.234a1.189,1.189,0,0,1-1.189,1.189H67.195v7.239a1.189,1.189,0,0,1-1.189,1.189H52.53a1.189,1.189,0,1,1,0-2.379H64.816V72.033a1.189,1.189,0,0,1,1.189-1.189H78.287V63.609a1.189,1.189,0,0,1,1.189-1.189H91.763V55.185A1.189,1.189,0,0,1,92.952,54h13.471a1.189,1.189,0,0,1,1.189,1.189ZM75.992,13.937a1.189,1.189,0,0,1,1.343-1.012l3.178.446a1.189,1.189,0,0,1,.937,1.624l-1.2,2.972a1.189,1.189,0,0,1-2.269-.676l-9.345,5.394a1.189,1.189,0,1,1-1.189-2.06l9.347-5.4A1.189,1.189,0,0,1,75.992,13.937ZM58.93,19.054a1.189,1.189,0,0,1,.435-1.625l9.344-5.4a1.189,1.189,0,0,1,.543-2.3l3.178.446a1.189,1.189,0,0,1,.937,1.624l-1.2,2.976A1.189,1.189,0,0,1,69.9,14.1l-9.341,5.394a1.188,1.188,0,0,1-1.624-.435ZM88.7,21.791a5.614,5.614,0,1,0-5.614-5.614A5.62,5.62,0,0,0,88.7,21.791Zm0-8.849a3.235,3.235,0,1,1-3.235,3.235A3.239,3.239,0,0,1,88.7,12.942ZM63.778,33.621a5.612,5.612,0,1,0-5.614-5.614A5.62,5.62,0,0,0,63.778,33.621Zm0-8.845a3.233,3.233,0,1,1-3.235,3.231A3.237,3.237,0,0,1,63.778,24.776Z" transform="translate(-49.378 -7.983)" fill="#fff"/>
</svg>
