<svg xmlns="http://www.w3.org/2000/svg" xmlns:xlink="http://www.w3.org/1999/xlink" width="81.391" height="73.872" viewBox="0 0 81.391 73.872">
  <defs>
    <linearGradient id="linear-gradient" x1="0.5" x2="0.5" y2="1" gradientUnits="objectBoundingBox">
      <stop offset="0" stop-color="#1579b0"/>
      <stop offset="1" stop-color="#51bbf3"/>
    </linearGradient>
  </defs>
  <path id="Union_11" data-name="Union 11" d="M6667.339-26.128a1.174,1.174,0,0,1-1.178-1.171,1.174,1.174,0,0,1,1.178-1.171h3.8l1.246-8.994H6646.3a4.293,4.293,0,0,1-4.3-4.276V-84.108a4.291,4.291,0,0,1,4.3-4.274h6.052V-91.2a4.133,4.133,0,0,1,4.139-4.115h12.738v-1.169a2.526,2.526,0,0,1,2.53-2.515h3.176a2.526,2.526,0,0,1,2.531,2.515v1.169h1.189a4.723,4.723,0,0,1,3.542,1.6,4.719,4.719,0,0,1,3.54-1.6h2.837a1.174,1.174,0,0,1,1.178,1.171,1.174,1.174,0,0,1-1.178,1.171h-2.837a2.359,2.359,0,0,0-2.362,2.35v34.338a4.745,4.745,0,0,1,2.362-.622H6707.9a1.782,1.782,0,0,0,1.785-1.774V-91.2a1.782,1.782,0,0,0-1.785-1.774h-14.616a1.174,1.174,0,0,1-1.178-1.171,1.174,1.174,0,0,1,1.178-1.171H6707.9a4.133,4.133,0,0,1,4.141,4.115v2.817h6.05a4.293,4.293,0,0,1,4.3,4.276v42.368a4.293,4.293,0,0,1-4.3,4.276H6692l1.247,8.994h3.8a1.175,1.175,0,0,1,1.178,1.171,1.175,1.175,0,0,1-1.178,1.171Zm6.177-2.341h17.358l-1.248-9h-14.864Zm-29.161-13.269a1.941,1.941,0,0,0,1.944,1.934h71.792a1.942,1.942,0,0,0,1.945-1.934v-4.109h-56.8a1.174,1.174,0,0,1-1.178-1.171,1.174,1.174,0,0,1,1.178-1.171h56.8V-84.108a1.942,1.942,0,0,0-1.945-1.934h-6.05v27.36a4.133,4.133,0,0,1-4.141,4.115h-22.164a2.372,2.372,0,0,0-2.352,2.137,1.176,1.176,0,0,1-1.173,1.067h-.015a1.19,1.19,0,0,1-1.188-1.067,2.372,2.372,0,0,0-2.354-2.137H6656.49a4.133,4.133,0,0,1-4.139-4.115v-27.36H6646.3a1.941,1.941,0,0,0-1.944,1.934V-48.19h14.17a1.174,1.174,0,0,1,1.178,1.171,1.174,1.174,0,0,1-1.178,1.171h-14.17ZM6654.706-91.2v32.519a1.781,1.781,0,0,0,1.784,1.774h22.164a4.751,4.751,0,0,1,2.363.622V-90.624a2.359,2.359,0,0,0-2.363-2.35h-1.189v15.058a1.642,1.642,0,0,1-.845,1.432,1.658,1.658,0,0,1-1.669-.038l-1.488-.914-1.781.991a1.659,1.659,0,0,1-.805.207,1.656,1.656,0,0,1-.834-.223,1.643,1.643,0,0,1-.814-1.413v-15.1H6656.49A1.781,1.781,0,0,0,6654.706-91.2Zm16.877-5.284h0v17.411l1.093-.607a1.65,1.65,0,0,1,1.669.037l.764.469V-96.485a.175.175,0,0,0-.175-.174h-3.176A.175.175,0,0,0,6671.583-96.485Zm16.873,35.706a1.174,1.174,0,0,1-1.178-1.171,1.174,1.174,0,0,1,1.178-1.171h17.4a1.174,1.174,0,0,1,1.179,1.171,1.174,1.174,0,0,1-1.179,1.171Zm-28.913,0a1.174,1.174,0,0,1-1.178-1.171,1.174,1.174,0,0,1,1.178-1.171h17.4a1.174,1.174,0,0,1,1.178,1.171,1.174,1.174,0,0,1-1.178,1.171Zm28.913-5.152a1.174,1.174,0,0,1-1.178-1.171,1.174,1.174,0,0,1,1.178-1.171h17.4a1.174,1.174,0,0,1,1.179,1.171,1.174,1.174,0,0,1-1.179,1.171Zm-28.913,0a1.174,1.174,0,0,1-1.178-1.171,1.174,1.174,0,0,1,1.178-1.171h17.4a1.174,1.174,0,0,1,1.178,1.171,1.174,1.174,0,0,1-1.178,1.171Zm28.913-5.153a1.174,1.174,0,0,1-1.178-1.171,1.174,1.174,0,0,1,1.178-1.171h17.4a1.174,1.174,0,0,1,1.179,1.171,1.174,1.174,0,0,1-1.179,1.171Zm-28.913,0a1.174,1.174,0,0,1-1.178-1.171,1.174,1.174,0,0,1,1.178-1.171h17.4a1.174,1.174,0,0,1,1.178,1.171,1.174,1.174,0,0,1-1.178,1.171Zm0-4.823a1.174,1.174,0,0,1-1.178-1.171,1.174,1.174,0,0,1,1.178-1.171h5.646a1.174,1.174,0,0,1,1.178,1.171,1.174,1.174,0,0,1-1.178,1.171Zm30.831-.33a2.66,2.66,0,0,1-2.664-2.649v-8.04a2.66,2.66,0,0,1,2.664-2.649h13.562a2.659,2.659,0,0,1,2.664,2.649v8.04a2.66,2.66,0,0,1-2.665,2.649Zm-.31-10.69v8.042a.309.309,0,0,0,.31.307h13.561a.309.309,0,0,0,.312-.307v-8.042a.311.311,0,0,0-.312-.308h-13.561A.31.31,0,0,0,6690.064-86.926Zm-30.521,6.2a1.174,1.174,0,0,1-1.178-1.171,1.174,1.174,0,0,1,1.178-1.171h5.646a1.174,1.174,0,0,1,1.178,1.171,1.174,1.174,0,0,1-1.178,1.171Zm0-4.823a1.174,1.174,0,0,1-1.178-1.171,1.174,1.174,0,0,1,1.178-1.171h5.646a1.174,1.174,0,0,1,1.178,1.171,1.174,1.174,0,0,1-1.178,1.171Z" transform="translate(-6641.5 99.5)" stroke="rgba(0,0,0,0)" stroke-width="1" fill="url(#linear-gradient)"/>
</svg>
