<svg xmlns="http://www.w3.org/2000/svg" xmlns:xlink="http://www.w3.org/1999/xlink" width="73.062" height="74.004" viewBox="0 0 73.062 74.004">
  <defs>
    <linearGradient id="linear-gradient" x1="0.5" x2="0.5" y2="1" gradientUnits="objectBoundingBox">
      <stop offset="0" stop-color="#1579b0"/>
      <stop offset="1" stop-color="#51bbf3"/>
    </linearGradient>
  </defs>
  <path id="Union_10" data-name="Union 10" d="M6665.42-26a2.8,2.8,0,0,1-2.814-2.851v-4.1a2.806,2.806,0,0,1,2.814-2.852h3.715v-5.131h-21.5a5.612,5.612,0,0,1-5.631-5.7V-81.878a5.612,5.612,0,0,1,5.631-5.7h.1q.054-.289.124-.57a1.038,1.038,0,0,1,1.238-.8,2.654,2.654,0,0,0,1.916-.57c.111-.227-.226-1.027-1.126-1.71a1.091,1.091,0,0,1-.226-1.483,13.439,13.439,0,0,1,4.278-4.106,1.087,1.087,0,0,1,1.463.342,2.472,2.472,0,0,0,1.69,1.255,3.058,3.058,0,0,0,.563-2.28,1.235,1.235,0,0,1,.9-1.255,14.4,14.4,0,0,1,5.855.114,1.051,1.051,0,0,1,.788,1.254c-.227,1.255.113,1.939.45,2.167.226.114.9-.229,1.577-1.141a1.217,1.217,0,0,1,1.464-.342,13.489,13.489,0,0,1,4.053,4.333,1.118,1.118,0,0,1-.337,1.483c-1.013.8-1.238,1.483-1.238,1.711.111.227.788.569,1.914.456a1.115,1.115,0,0,1,1.237.912c.013.076.024.151.037.227h34.082a5.612,5.612,0,0,1,5.629,5.7v35.238a5.611,5.611,0,0,1-5.629,5.7h-21.507v5.131h3.717a2.807,2.807,0,0,1,2.814,2.852v4.1A2.805,2.805,0,0,1,6690.643-26Zm-.563-6.955v4.1a.529.529,0,0,0,.563.57h25.222a.529.529,0,0,0,.563-.57v-4.1a.529.529,0,0,0-.563-.57H6665.42A.727.727,0,0,0,6664.857-32.955Zm6.53-2.852h13.287v-5.131h-13.287Zm-27.135-10.832a3.339,3.339,0,0,0,3.378,3.421h60.8a3.34,3.34,0,0,0,3.378-3.421v-1.255h-67.558Zm67.558-3.536v-31.7a3.34,3.34,0,0,0-3.378-3.421h-33.881a13.222,13.222,0,0,1-.35,3.421,1.036,1.036,0,0,1-1.238.8c-1.24-.229-1.914.114-2.14.456-.225.57.451,1.368,1.127,1.824a1.254,1.254,0,0,1,.337,1.483,13.4,13.4,0,0,1-4.278,4.106,1.088,1.088,0,0,1-1.464-.342c-.563-.914-1.351-1.37-1.8-1.141-.224.114-.563.8-.45,2.053a1.233,1.233,0,0,1-.9,1.254,5.674,5.674,0,0,1-2.477.456,14.1,14.1,0,0,1-3.152-.342,1.052,1.052,0,0,1-.79-1.255c.226-1.254-.113-1.939-.451-2.166-.224-.114-.9.227-1.576,1.141a1.22,1.22,0,0,1-1.464.342,13.481,13.481,0,0,1-4.052-4.333,1.117,1.117,0,0,1,.337-1.483c1.014-.8,1.24-1.483,1.24-1.711-.113-.227-.79-.57-2.027-.57a1.222,1.222,0,0,1-1.239-.912,17.3,17.3,0,0,1-.238-3.076,3.337,3.337,0,0,0-3.251,3.419v31.7Zm-54.16-26.686a4.375,4.375,0,0,1,1.575,3.536,9.043,9.043,0,0,0,3.041,0,3.821,3.821,0,0,1,1.913-3.307,3.506,3.506,0,0,1,3.715,1.141,9.725,9.725,0,0,0,2.253-2.053,3.729,3.729,0,0,1-1.014-3.877,3.574,3.574,0,0,1,3.378-1.826,14.129,14.129,0,0,0,.113-3.078,3.372,3.372,0,0,1-3.267-1.939,3.488,3.488,0,0,1,1.127-3.65,9.746,9.746,0,0,0-2.027-2.28,3.3,3.3,0,0,1-3.716,1.027,3.57,3.57,0,0,1-1.687-3.421,9.037,9.037,0,0,0-3.04,0c-.113,1.71-.79,2.965-2.027,3.421a3.39,3.39,0,0,1-3.6-1.141,9.71,9.71,0,0,0-2.252,2.053,3.389,3.389,0,0,1,1.014,3.763,3.5,3.5,0,0,1-3.378,1.711,9.436,9.436,0,0,0,0,3.078,3.551,3.551,0,0,1,3.265,1.939,3.49,3.49,0,0,1-1.125,3.65,9.775,9.775,0,0,0,2.026,2.28,3.893,3.893,0,0,1,2.661-1.272A2.316,2.316,0,0,1,6657.651-76.861Zm18.691,32.5a1.072,1.072,0,0,1-1.127-1.141,1.073,1.073,0,0,1,1.127-1.141h3.377a1.072,1.072,0,0,1,1.127,1.141,1.071,1.071,0,0,1-1.127,1.141Zm5.179-8.667a3.874,3.874,0,0,1-3.941-3.992V-77.659a3.874,3.874,0,0,1,3.941-3.992h23.871a3.874,3.874,0,0,1,3.941,3.992V-56.9a4.092,4.092,0,0,1-4.054,3.879Zm-1.688-3.992a1.741,1.741,0,0,0,1.688,1.71h23.758a1.835,1.835,0,0,0,1.8-1.71V-71.729h-27.247Zm27.247-16.991v-3.65a1.743,1.743,0,0,0-1.688-1.711h-23.871a1.743,1.743,0,0,0-1.688,1.711v3.65Zm-55.06,20.983a4.838,4.838,0,0,1-4.842-4.9,4.837,4.837,0,0,1,4.842-4.9h18.016a4.836,4.836,0,0,1,4.842,4.9,4.837,4.837,0,0,1-4.842,4.9Zm-2.588-4.9a2.713,2.713,0,0,0,2.588,2.622h18.016a2.716,2.716,0,0,0,2.591-2.622,2.716,2.716,0,0,0-2.591-2.624h-18.016A2.714,2.714,0,0,0,6649.432-57.929Zm4.165,1.139a1.07,1.07,0,0,1-1.125-1.139,1.07,1.07,0,0,1,1.125-1.141h10.022a1.07,1.07,0,0,1,1.124,1.141,1.069,1.069,0,0,1-1.124,1.139Zm38.283-1.368a1.173,1.173,0,0,1-.787-1.368l2.364-8.9a1.155,1.155,0,0,1,1.351-.8,1.172,1.172,0,0,1,.788,1.368l-2.251,8.9a1.358,1.358,0,0,1-1.127.8Zm4.842-1.483a1.113,1.113,0,0,1,0-1.6l2.463-2.495-2.576-2.522a1.113,1.113,0,0,1,0-1.6,1.079,1.079,0,0,1,1.576,0l3.351,3.28.027.027a1.132,1.132,0,0,1,.337.8,1.132,1.132,0,0,1-.337.8l-3.265,3.307a1.018,1.018,0,0,1-.79.343A1.016,1.016,0,0,1,6696.722-59.641Zm-8.22,0-3.265-3.307a1.038,1.038,0,0,1-.339-.8,1.039,1.039,0,0,1,.339-.8l3.377-3.307a1.078,1.078,0,0,1,1.575,0,1.11,1.11,0,0,1,0,1.6l-2.588,2.509,2.478,2.507a1.113,1.113,0,0,1,0,1.6,1.014,1.014,0,0,1-.79.342A1.015,1.015,0,0,1,6688.5-59.641Zm14.525-15.85a1.072,1.072,0,0,1-1.127-1.141,1.071,1.071,0,0,1,1.127-1.141h1.237a1.071,1.071,0,0,1,1.127,1.141,1.072,1.072,0,0,1-1.127,1.141Zm-4.842,0a1.071,1.071,0,0,1-1.126-1.141,1.07,1.07,0,0,1,1.126-1.141h1.239a1.071,1.071,0,0,1,1.126,1.141,1.072,1.072,0,0,1-1.126,1.141Zm-15.651,0a1.071,1.071,0,0,1-1.125-1.141,1.07,1.07,0,0,1,1.125-1.141h12.16a1.071,1.071,0,0,1,1.126,1.141,1.072,1.072,0,0,1-1.126,1.141Zm-29.051-9.351a7.594,7.594,0,0,1,7.545-7.642,7.593,7.593,0,0,1,7.544,7.642,7.593,7.593,0,0,1-7.544,7.64A7.594,7.594,0,0,1,6653.484-84.843Zm2.253,0a5.32,5.32,0,0,0,5.292,5.36,5.32,5.32,0,0,0,5.292-5.36,5.32,5.32,0,0,0-5.292-5.36A5.32,5.32,0,0,0,6655.737-84.843Z" transform="translate(-6641.5 99.504)" stroke="rgba(0,0,0,0)" stroke-width="1" fill="url(#linear-gradient)"/>
</svg>
