<svg xmlns="http://www.w3.org/2000/svg" xmlns:xlink="http://www.w3.org/1999/xlink" width="60.712" height="75.874" viewBox="0 0 60.712 75.874">
  <defs>
    <linearGradient id="linear-gradient" x1="0.5" x2="0.5" y2="1" gradientUnits="objectBoundingBox">
      <stop offset="0" stop-color="#1579b0"/>
      <stop offset="1" stop-color="#51bbf3"/>
    </linearGradient>
  </defs>
  <path id="skill-development" d="M95.345,26.809a14.5,14.5,0,0,1,.793,4.757,1.16,1.16,0,1,1-2.32,0A12.225,12.225,0,0,0,85.67,20.012a1.161,1.161,0,0,1,.778-2.187A14.524,14.524,0,0,1,95.345,26.809Zm5.271,5.843a18.892,18.892,0,0,1-6.533,13.33,14.772,14.772,0,0,0-5.021,10.5,4.148,4.148,0,0,1,3.083,7.106,4.144,4.144,0,0,1-2.863,7.106H88.048A4.976,4.976,0,0,1,83.1,75.874H74.336a4.967,4.967,0,0,1-4.948-5.182H68.155a4.144,4.144,0,0,1-2.863-7.106,4.138,4.138,0,0,1,1.835-6.959,6.914,6.914,0,0,1-1.409-2.261,7.93,7.93,0,0,1-7.913-10.438,9.158,9.158,0,0,1,0-16.546,7.939,7.939,0,0,1,7.913-10.438c2.643-7,12.993-5.212,13.081,2.32V52.046a6.687,6.687,0,0,1-1.674,4.434h3.259V15.153a2.636,2.636,0,0,1,2.833-2.613,19.186,19.186,0,0,1,17.4,20.113ZM69.8,48.391a1.156,1.156,0,0,1-.675,1.5,2.032,2.032,0,0,0-.778.5,3.052,3.052,0,0,0-.617,2.51,4.433,4.433,0,0,0,8.779-.837V19.278a4.424,4.424,0,0,0-8.442-1.82c1.556.308,6.166,4.243,2.863,4.977-1.116-.029-1.336-1.5-2.232-2-4.346-3.45-10.541,1.277-8.647,6.3A6.525,6.525,0,0,1,65.924,29a1.157,1.157,0,1,1-1.776,1.483A4.218,4.218,0,0,0,59.7,29.158a6.825,6.825,0,0,0-.778,12.729c.778-1.248,5.359-4.742,6.166-2.3a1.163,1.163,0,0,1-.837,1.409,5.589,5.589,0,0,0,1.116,11.07A4.808,4.808,0,0,1,66.7,48.743C67.451,47.965,69.183,46.952,69.8,48.391Zm15.944,22.3H71.723a2.655,2.655,0,0,0,2.628,2.863h8.765A2.656,2.656,0,0,0,85.743,70.691ZM91.1,66.566a1.82,1.82,0,0,0-1.82-1.82h-21.1a1.82,1.82,0,0,0,0,3.641H89.3A1.836,1.836,0,0,0,91.1,66.566ZM68.185,58.8a1.813,1.813,0,0,0,0,3.626H89.3a1.82,1.82,0,0,0,0-3.641H68.185ZM83.013,14.844c-.206.015-.294.088-.323.308V56.48h4.023a17.154,17.154,0,0,1,5.843-12.244c11.172-9.557,5.036-28.2-9.543-29.392Zm14.916,2.143,5.359-5.359a1.163,1.163,0,0,0-1.644-1.644l-5.359,5.359A1.163,1.163,0,0,0,97.929,16.988Zm13.213,13.595h-7.575a1.16,1.16,0,0,0,0,2.32h7.575A1.16,1.16,0,0,0,111.142,30.582Zm-13.213,15.9a1.163,1.163,0,0,0-1.644,1.644l5.359,5.359a1.163,1.163,0,0,0,1.644-1.644ZM82.7,9.721V2.145a1.16,1.16,0,0,0-2.32,0V9.721A1.16,1.16,0,0,0,82.7,9.721Z" transform="translate(-52.075 -0.5)" stroke="rgba(0,0,0,0)" stroke-width="1" fill="url(#linear-gradient)"/>
</svg>
