<svg xmlns="http://www.w3.org/2000/svg" xmlns:xlink="http://www.w3.org/1999/xlink" width="73.085" height="73.102" viewBox="0 0 73.085 73.102">
  <defs>
    <linearGradient id="linear-gradient" x1="0.5" x2="0.5" y2="1" gradientUnits="objectBoundingBox">
      <stop offset="0" stop-color="#1579b0"/>
      <stop offset="1" stop-color="#51bbf3"/>
    </linearGradient>
  </defs>
  <path id="product-management" d="M36.043,26.427a1.126,1.126,0,0,1,1.126,1.126V35a1.126,1.126,0,0,1-2.253,0V27.553A1.126,1.126,0,0,1,36.043,26.427Zm-10.318-9.38V6.433a1.126,1.126,0,0,1,.563-.975L35.48.151a1.126,1.126,0,0,1,1.126,0L45.8,5.458a1.126,1.126,0,0,1,.563.975V17.046a1.126,1.126,0,0,1-.563.975l-9.191,5.306a1.125,1.125,0,0,1-1.126,0l-9.191-5.306a1.126,1.126,0,0,1-.563-.976Zm2.253-.65L34.916,20.4V12.39L27.978,8.384Zm16.13,0V8.384L37.169,12.39V20.4Zm-15-9.963,6.939,4.006,6.939-4.006L36.043,2.427ZM61.768,42.405a1.126,1.126,0,0,0-1.126,1.126V47.2L55.1,52.746a1.126,1.126,0,1,0,1.593,1.593l5.871-5.871a1.126,1.126,0,0,0,.33-.8V43.532a1.126,1.126,0,0,0-1.126-1.126ZM72.085,21.981V32.593a1.126,1.126,0,0,1-.563.975l-9.191,5.306a1.126,1.126,0,0,1-1.126,0l-9.191-5.306a1.126,1.126,0,0,1-.563-.975V21.981a1.126,1.126,0,0,1,.563-.975L61.2,15.7a1.126,1.126,0,0,1,1.126,0l9.191,5.306A1.126,1.126,0,0,1,72.085,21.981Zm-17.256,0,6.939,4.006,6.938-4.006-6.939-4.006ZM53.7,31.943l6.938,4.006V27.937L53.7,23.931Zm16.13,0V23.931l-6.939,4.006v8.012ZM11.444,47.2V43.532a1.126,1.126,0,0,0-2.253,0v4.139a1.126,1.126,0,0,0,.33.8l5.871,5.871a1.126,1.126,0,1,0,1.593-1.593Zm-1.69-8.329L.563,33.569A1.126,1.126,0,0,1,0,32.593V21.981a1.126,1.126,0,0,1,.563-.975L9.754,15.7a1.126,1.126,0,0,1,1.126,0L20.072,21a1.126,1.126,0,0,1,.563.975V32.593a1.126,1.126,0,0,1-.563.975l-9.191,5.306a1.126,1.126,0,0,1-1.126,0Zm8.628-6.932V23.931l-6.938,4.006v8.012Zm-15-9.963,6.939,4.006,6.939-4.006-6.939-4.006ZM2.253,31.943l6.939,4.006V27.937L2.253,23.931Zm50.023,22.4v3.019a1.126,1.126,0,0,1-.722,1.051l-1.966.757a13.784,13.784,0,0,1-1.622,3.914l0,.006.853,1.921a1.126,1.126,0,0,1-.233,1.253L46.454,68.4a1.126,1.126,0,0,1-1.253.233l-1.926-.855A13.787,13.787,0,0,1,39.361,69.4l0,0L38.6,71.364a1.126,1.126,0,0,1-1.052.722H34.533a1.126,1.126,0,0,1-1.051-.722L32.725,69.4a13.787,13.787,0,0,1-3.914-1.622l-.006,0-1.92.853a1.127,1.127,0,0,1-1.253-.233L23.5,66.263a1.126,1.126,0,0,1-.233-1.253l.855-1.926A13.78,13.78,0,0,1,22.5,59.17l0,0-1.961-.755a1.126,1.126,0,0,1-.722-1.051v-3.02a1.126,1.126,0,0,1,.722-1.051l1.966-.757a13.776,13.776,0,0,1,1.623-3.914l-.856-1.926a1.126,1.126,0,0,1,.233-1.253l2.135-2.135a1.126,1.126,0,0,1,1.253-.233l1.927.856a13.779,13.779,0,0,1,3.914-1.622l0,0,.755-1.961a1.126,1.126,0,0,1,1.051-.722h3.02a1.126,1.126,0,0,1,1.051.722l.757,1.966a13.78,13.78,0,0,1,3.914,1.622l1.927-.856a1.126,1.126,0,0,1,1.253.233l2.135,2.135a1.126,1.126,0,0,1,.233,1.253l-.855,1.926a13.785,13.785,0,0,1,1.623,3.914h0l1.961.755a1.126,1.126,0,0,1,.721,1.052Zm-2.253.773-1.809-.7a1.126,1.126,0,0,1-.7-.834,11.567,11.567,0,0,0-1.758-4.241,1.126,1.126,0,0,1-.094-1.085l.787-1.773-1.042-1.042-1.774.788a1.126,1.126,0,0,1-1.085-.094,11.572,11.572,0,0,0-4.239-1.757,1.126,1.126,0,0,1-.834-.7l-.7-1.809H35.306l-.7,1.809a1.126,1.126,0,0,1-.834.7,11.573,11.573,0,0,0-4.24,1.758,1.126,1.126,0,0,1-1.085.094l-1.774-.788-1.042,1.042.788,1.773a1.126,1.126,0,0,1-.094,1.085,11.567,11.567,0,0,0-1.757,4.24,1.126,1.126,0,0,1-.7.834l-1.809.7v1.473l1.809.7a1.126,1.126,0,0,1,.7.834,11.57,11.57,0,0,0,1.758,4.241,1.126,1.126,0,0,1,.094,1.085l-.787,1.773,1.042,1.042,1.774-.787a1.127,1.127,0,0,1,1.084.094,11.569,11.569,0,0,0,4.24,1.757,1.126,1.126,0,0,1,.834.7l.7,1.809h1.473l.7-1.809a1.126,1.126,0,0,1,.834-.7,11.571,11.571,0,0,0,4.241-1.758,1.126,1.126,0,0,1,1.085-.094l1.773.787,1.042-1.042-.788-1.774a1.126,1.126,0,0,1,.094-1.085,11.569,11.569,0,0,0,1.758-4.239,1.126,1.126,0,0,1,.7-.834l1.809-.7Zm-5.755.736a8.226,8.226,0,1,1-8.226-8.226,8.226,8.226,0,0,1,8.226,8.226Zm-2.253,0a5.974,5.974,0,1,0-5.974,5.974,5.974,5.974,0,0,0,5.974-5.974Z" transform="translate(0.5 0.517)" stroke="rgba(0,0,0,0)" stroke-width="1" fill="url(#linear-gradient)"/>
</svg>
